<?xml version="1.0" encoding="utf-8"?><!-- Uploaded to: SVG Repo, www.svgrepo.com, Generator: SVG Repo Mixer Tools -->
<svg width="800px" height="800px" viewBox="0 0 24 24" fill="none" xmlns="http://www.w3.org/2000/svg">
<path d="M16.6922 10.2727C16.4505 9.6163 16.0739 9.01792 15.5865 8.51621C15.0992 8.0145 14.512 7.62061 13.8629 7.36002" stroke="#000000" stroke-width="2" stroke-linecap="round"/>
<path d="M20.6933 9.67063C20.2844 8.14464 19.481 6.75315 18.3639 5.63604C17.2468 4.51893 15.8553 3.71556 14.3293 3.30667" stroke="#000000" stroke-width="2" stroke-linecap="round"/>
<path fill-rule="evenodd" clip-rule="evenodd" d="M9.54518 8.64285C9.94864 10.1006 9.49484 11.6214 8.5005 12.5588C8.31197 12.7366 8.25121 13.0239 8.39933 13.2365C8.71461 13.6891 9.07318 14.1194 9.47524 14.5217C9.87671 14.9235 10.3059 15.2819 10.7574 15.5971C10.9706 15.7459 11.2588 15.6841 11.4363 15.4941C12.3721 14.4918 13.8974 14.033 15.3591 14.4382C17.3294 14.9843 18.4384 16.8932 17.836 18.7018C16.071 24.0017 9.27545 18.7486 7.26351 16.7351C5.20294 14.673 0.030527 7.91654 5.28475 6.16411C7.09201 5.5613 8.99946 6.67108 9.54518 8.64285Z" stroke="#000000" stroke-width="2"/>
</svg>